<svg width="24" height="24" viewBox="0 0 24 24" fill="none" xmlns="http://www.w3.org/2000/svg">
<g clip-path="url(#clip0_13_538)">
<path d="M21.0711 18.816H19.9519V8.50556C19.9519 8.03058 19.8999 7.55555 19.7973 7.09369C19.6738 6.53775 19.1238 6.18731 18.5678 6.31073C18.0122 6.43434 17.662 6.98522 17.7855 7.5412C17.8543 7.85072 17.891 8.18363 17.891 8.50556V18.816L6.06267 18.816V8.5732C6.06267 6.29156 7.99359 4.21767 10.367 3.9502C10.3704 3.94983 10.3737 3.94922 10.3771 3.9488C10.8818 3.88744 11.2776 3.44489 11.2819 2.9355C11.282 2.93213 11.2822 2.9288 11.2822 2.92542C11.2822 2.44964 11.6681 2.0625 12.1426 2.0625C12.617 2.0625 13.003 2.44959 13.003 2.92552C13.003 3.41981 13.3932 3.87356 13.8826 3.94552C14.4291 4.02647 14.955 4.20347 15.4455 4.47164C15.6023 4.55742 15.7716 4.59811 15.9386 4.59811C16.3032 4.59811 16.6566 4.40391 16.8438 4.06106C17.1166 3.56123 16.9329 2.9347 16.4335 2.66166C15.9553 2.40019 15.4531 2.19919 14.9335 2.06039C14.5643 0.868313 13.4528 0 12.1426 0C10.8418 0 9.73734 0.855938 9.36014 2.0347C8.03231 2.34413 6.80334 3.05114 5.83903 4.07231C4.65422 5.32711 4.00172 6.92555 4.00172 8.5732V18.816H2.92889C2.35978 18.816 1.89844 19.2778 1.89844 19.8473C1.89844 20.4168 2.35978 20.8785 2.92889 20.8785H8.64187C8.77101 22.6213 10.2272 24 12 24C13.7727 24 15.2289 22.6212 15.3581 20.8785H21.0711C21.6402 20.8785 22.1015 20.4168 22.1015 19.8472C22.1015 19.2777 21.6402 18.816 21.0711 18.816ZM12 21.9375C11.3649 21.9375 10.8343 21.4812 10.7168 20.8785H13.2831C13.1656 21.4812 12.635 21.9375 12 21.9375Z" fill="#7A8699"/>
<path d="M17.9018 6.13941C18.4709 6.13941 18.9322 5.6777 18.9322 5.10816C18.9322 4.53861 18.4709 4.0769 17.9018 4.0769C17.3327 4.0769 16.8713 4.53861 16.8713 5.10816C16.8713 5.6777 17.3327 6.13941 17.9018 6.13941Z" fill="#7A8699"/>
</g>
<defs>
<clipPath id="clip0_13_538">
<rect width="24" height="24" fill="white"/>
</clipPath>
</defs>
</svg>
