<?xml version="1.0" standalone="no"?>
<!DOCTYPE svg PUBLIC "-//W3C//DTD SVG 20010904//EN"
 "http://www.w3.org/TR/2001/REC-SVG-20010904/DTD/svg10.dtd">
<svg version="1.0" xmlns="http://www.w3.org/2000/svg"
 width="500.000000pt" height="500.000000pt" viewBox="0 0 500.000000 500.000000"
 preserveAspectRatio="xMidYMid meet">

<g transform="translate(0.000000,500.000000) scale(0.100000,-0.100000)"
fill="#fff" stroke="none">
<path d="M2101 3922 c-15 -35 -44 -64 -85 -86 l-30 -15 25 -10 c31 -12 85 -69
94 -99 6 -22 8 -21 27 18 13 27 36 50 65 67 l45 26 -28 15 c-42 21 -64 42 -83
81 l-18 33 -12 -30z"/>
<path d="M1975 3588 c-33 -18 -55 -51 -55 -84 l0 -31 39 19 c30 15 56 18 117
16 l79 -3 3 -33 c3 -27 -4 -40 -36 -72 -32 -32 -48 -40 -93 -46 -60 -8 -109
-46 -109 -84 0 -19 4 -21 38 -16 20 3 60 8 87 12 133 17 201 98 212 250 l6 84
-134 0 c-78 0 -142 -5 -154 -12z"/>
<path d="M2345 3503 c0 -88 -3 -104 -27 -150 -58 -109 -147 -168 -278 -183
-102 -12 -137 -27 -187 -84 -84 -96 -79 -230 14 -318 59 -56 172 -76 250 -43
20 8 39 13 42 9 3 -3 8 -55 9 -115 l4 -109 -32 -17 c-50 -27 -87 -61 -93 -83
-5 -19 0 -20 104 -20 l109 0 0 290 0 290 -50 0 -50 0 0 -35 c0 -81 -57 -135
-140 -135 -47 0 -56 4 -90 38 -50 50 -59 98 -30 157 25 51 83 85 146 85 191 1
376 174 392 367 l5 63 310 0 309 0 -17 -27 c-10 -16 -27 -43 -39 -60 l-21 -33
-167 0 c-111 0 -168 4 -168 11 0 5 -16 17 -36 25 -101 42 -183 -79 -105 -157
40 -40 88 -40 134 1 l35 30 178 0 179 0 44 68 c25 37 69 104 98 150 l53 82
-442 0 -443 0 0 -97z"/>
<path d="M2952 3180 c-20 -19 -35 -20 -280 -20 l-258 0 -64 -47 -64 -48 318
-3 318 -2 30 -25 c39 -33 87 -33 127 1 26 22 31 33 31 70 0 62 -32 94 -93 94
-29 0 -50 -6 -65 -20z"/>
<path d="M2511 2966 c-154 -56 -201 -256 -88 -374 60 -63 75 -67 272 -72 l180
-5 -58 -29 c-50 -25 -87 -64 -87 -91 0 -3 47 -5 105 -5 l105 0 0 110 0 110
-193 0 c-167 0 -197 2 -226 18 -68 37 -91 129 -48 193 81 121 257 63 257 -84
l0 -39 201 4 201 3 29 33 c31 35 39 85 18 125 -11 20 -12 19 -23 -13 -6 -19
-22 -40 -36 -47 -26 -13 -254 -19 -285 -7 -9 4 -27 27 -39 53 -29 57 -58 84
-116 110 -50 23 -118 26 -169 7z"/>
<path d="M1618 2056 c-171 -66 -196 -287 -43 -381 42 -26 58 -30 120 -30 62 0
78 4 120 30 133 82 132 283 0 361 -55 32 -142 41 -197 20z m132 -101 c58 -30
77 -94 45 -155 -54 -105 -215 -60 -215 60 0 42 15 67 53 90 38 24 78 25 117 5z"/>
<path d="M1050 1855 l0 -195 99 0 c55 0 112 5 128 11 91 34 148 163 112 256
-14 38 -67 92 -106 109 -20 9 -70 14 -133 14 l-100 0 0 -195z m197 95 c68 -41
62 -159 -9 -196 -15 -8 -41 -14 -58 -14 l-30 0 0 115 0 115 33 0 c17 0 46 -9
64 -20z"/>
<path d="M1992 1896 c3 -171 10 -190 77 -230 45 -26 146 -26 191 0 68 40 75
58 78 230 l3 154 -50 0 -51 0 0 -124 c0 -69 -4 -136 -10 -150 -12 -32 -50 -51
-85 -42 -42 11 -55 57 -55 196 l0 120 -51 0 -50 0 3 -154z"/>
<path d="M2413 2038 c2 -7 29 -95 58 -196 l54 -183 55 3 55 3 35 102 c19 56
38 104 41 108 6 5 18 -29 60 -173 l12 -43 55 3 55 3 58 180 c32 99 59 186 59
193 0 8 -16 12 -49 12 l-50 0 -16 -57 c-45 -159 -58 -194 -65 -183 -4 7 -23
64 -41 126 l-33 114 -42 0 -42 0 -43 -127 -42 -128 -12 35 c-6 19 -22 77 -35
128 l-24 92 -54 0 c-39 0 -52 -3 -49 -12z"/>
<path d="M3105 2023 c10 -15 42 -60 71 -101 l54 -75 0 -93 0 -94 50 0 50 0 0
94 0 93 63 89 c35 49 66 95 71 102 5 9 -8 12 -53 12 l-61 0 -32 -50 c-18 -27
-36 -50 -39 -50 -4 0 -21 23 -39 50 l-32 50 -60 0 -60 0 17 -27z"/>
<path d="M3550 1855 l0 -195 50 0 49 0 3 120 3 119 93 -119 93 -120 54 0 55 0
0 195 0 195 -50 0 -50 0 0 -115 c0 -63 -4 -115 -9 -115 -5 0 -49 52 -97 115
l-89 115 -52 0 -53 0 0 -195z"/>
<path d="M1040 1430 c-13 -25 -6 -38 27 -51 27 -10 22 -32 -6 -27 -10 2 -19
-1 -19 -7 -1 -5 13 -10 31 -10 28 0 32 4 35 27 3 22 -2 30 -23 38 -25 10 -26
33 -1 28 6 -2 13 2 14 7 1 6 -8 11 -22 13 -17 2 -28 -3 -36 -18z"/>
<path d="M1197 1432 c-37 -41 -11 -102 43 -102 36 0 60 23 60 59 0 54 -68 82
-103 43z m72 -26 c22 -26 -10 -63 -43 -50 -35 13 -24 64 14 64 10 0 23 -6 29
-14z"/>
<path d="M1370 1390 l0 -60 35 0 c19 0 35 5 35 10 0 6 -9 10 -20 10 -17 0 -20
7 -20 50 0 38 -4 50 -15 50 -12 0 -15 -13 -15 -60z"/>
<path d="M1500 1402 c0 -55 12 -72 52 -72 33 0 48 24 48 79 0 30 -4 41 -15 41
-11 0 -15 -12 -15 -44 0 -25 -5 -48 -10 -51 -20 -12 -40 17 -40 56 0 22 -4 39
-10 39 -5 0 -10 -22 -10 -48z"/>
<path d="M1660 1440 c0 -6 7 -13 15 -16 10 -4 15 -20 15 -50 0 -24 5 -44 10
-44 6 0 10 20 10 45 0 33 4 45 15 45 8 0 15 7 15 15 0 11 -11 15 -40 15 -22 0
-40 -5 -40 -10z"/>
<path d="M1807 1443 c-4 -3 -7 -30 -7 -60 0 -40 4 -53 15 -53 12 0 15 13 15
60 0 55 -6 70 -23 53z"/>
<path d="M1917 1432 c-37 -40 -11 -102 42 -102 45 0 67 27 62 77 -4 40 -75 57
-104 25z m77 -27 c13 -34 -24 -66 -50 -44 -15 12 -19 41 -7 52 12 13 51 7 57
-8z"/>
<path d="M2090 1390 c0 -47 3 -60 15 -60 11 0 15 11 15 38 l1 37 30 -37 c45
-56 59 -50 59 22 0 47 -3 60 -15 60 -11 0 -15 -11 -15 -37 l-1 -38 -30 38
c-45 55 -59 49 -59 -23z"/>
<path d="M2375 1440 c-3 -6 1 -13 9 -16 11 -4 16 -19 16 -50 0 -32 4 -44 15
-44 11 0 15 12 15 45 0 25 5 45 10 45 6 0 10 7 10 15 0 17 -65 22 -75 5z"/>
<path d="M2520 1390 l0 -60 30 0 c17 0 30 5 30 10 0 6 -6 10 -14 10 -24 0 -30
21 -7 27 27 7 27 19 -1 27 l-23 7 23 9 c32 13 27 30 -8 30 l-30 0 0 -60z"/>
<path d="M2667 1432 c-21 -23 -22 -66 -1 -86 20 -21 64 -21 64 0 0 8 -4 13 -9
10 -13 -9 -39 3 -45 21 -8 20 11 43 35 43 11 0 19 7 19 15 0 21 -43 19 -63 -3z"/>
<path d="M2810 1390 c0 -33 4 -60 10 -60 6 0 10 11 10 25 0 20 5 25 25 25 20
0 25 -5 25 -25 0 -16 6 -25 15 -25 12 0 15 13 15 60 0 47 -3 60 -15 60 -9 0
-15 -9 -15 -25 0 -20 -5 -25 -25 -25 -20 0 -25 5 -25 25 0 14 -4 25 -10 25 -6
0 -10 -27 -10 -60z"/>
<path d="M2980 1390 c0 -47 3 -60 15 -60 11 0 15 11 15 37 l0 38 31 -38 c45
-55 61 -50 57 20 -4 66 -28 89 -28 26 l-1 -38 -30 38 c-45 55 -59 49 -59 -23z"/>
<path d="M3185 1436 c-11 -8 -18 -26 -18 -46 0 -55 70 -82 106 -42 52 57 -25
134 -88 88z m73 -42 c6 -40 -48 -56 -62 -18 -10 26 5 45 33 42 17 -2 27 -10
29 -24z"/>
<path d="M3360 1391 l0 -61 30 0 c17 0 30 5 30 10 0 6 -7 10 -14 10 -11 0 -16
14 -18 47 -5 73 -28 68 -28 -6z"/>
<path d="M3502 1434 c-27 -19 -29 -64 -4 -87 60 -55 149 26 92 83 -24 24 -57
26 -88 4z m76 -41 c4 -28 -32 -50 -54 -32 -15 12 -19 41 -7 53 16 15 58 1 61
-21z"/>
<path d="M3687 1432 c-37 -40 -9 -102 46 -102 28 0 57 23 57 46 0 9 -11 14
-32 14 -31 -1 -32 -2 -14 -15 17 -13 17 -15 3 -21 -26 -10 -47 3 -47 29 0 33
25 54 45 37 19 -16 40 -3 24 16 -16 20 -63 17 -82 -4z"/>
<path d="M3850 1444 c0 -3 9 -17 20 -31 11 -14 20 -39 20 -55 0 -38 24 -32 28
7 2 15 11 39 19 52 20 31 9 42 -18 17 -19 -17 -21 -18 -30 -1 -9 16 -39 24
-39 11z"/>
</g>
</svg>
